<?xml version="1.0"?>
<svg xmlns="http://www.w3.org/2000/svg" id="Farm_Cloud_Database" data-name="Farm Cloud Database" viewBox="0 0 512 512" width="64px" height="64px"><g><g id="Outline"><path d="M117.65,312H108a92,92,0,0,1-6.1-183.8c10.174-.668,5.64-14.356,32.661-41.421a8,8,0,0,0-11.325-11.3,147.787,147.787,0,0,0-27.045,37.166A108,108,0,0,0,108,328h9.65a8,8,0,0,0,0-16Z" data-original="#000000" class="active-path" data-old_color="#000000" fill="#0BA4AAB5"/><path d="M452,208h-.691c-7.727-36.614-40.839-54.369-77.936-55.891C357.835,70.7,277.919,17.55,196.21,35.425a8,8,0,1,0,3.42,15.631c75.433-16.5,148.359,35.347,159.03,110.075A8.01,8.01,0,0,0,366.746,168c33.761-.689,65.847,13.723,69.8,48.9a8,8,0,0,0,7.95,7.1H452a44,44,0,0,1,0,88H394.35a8,8,0,0,0,0,16H452a60,60,0,0,0,0-120Z" data-original="#000000" class="active-path" data-old_color="#000000" fill="#0BA4AAB5"/><circle cx="256" cy="312" r="8" data-original="#000000" class="active-path" data-old_color="#000000" fill="#0BA4AAB5"/><circle cx="256" cy="280" r="8" data-original="#000000" class="active-path" data-old_color="#000000" fill="#0BA4AAB5"/><path d="M392,288V254.624C417.358,245.63,410.8,208,384,208s-33.367,37.627-8,46.624V280H345.36A120.2,120.2,0,0,0,288,244.339v-23.4l27.578-13.789A8,8,0,0,0,320,200V174.624C345.358,165.63,338.8,128,312,128s-33.367,37.627-8,46.624v20.432l-27.578,13.789A8,8,0,0,0,272,216v25.069a119.413,119.413,0,0,0-24-.8V126.624C273.358,117.63,266.8,80,240,80s-33.367,37.627-8,46.624V242.413a119.077,119.077,0,0,0-30.616,10.752L168,213.1v-22.48C193.358,181.63,186.8,144,160,144s-33.367,37.627-8,46.624V216c0,5.118,1.324,3.5,35.518,45.518a121,121,0,0,0-25.455,23.9c-19.9-25.6-19.318-27.977-24.123-29.178L80,241.754v-19.13C105.358,213.63,98.8,176,72,176s-33.367,37.627-8,46.624V248a8,8,0,0,0,6.06,7.761L131.3,271.072l21.2,28.264C105.806,378.7,163.178,480,256,480c94.532,0,151.653-104.714,101.463-184H384A8,8,0,0,0,392,288ZM312,144a8,8,0,1,1-8,8A8.009,8.009,0,0,1,312,144ZM240,96a8,8,0,1,1-8,8A8.009,8.009,0,0,1,240,96Zm-80,64a8,8,0,1,1-8,8A8.009,8.009,0,0,1,160,160ZM72,192a8,8,0,1,1-8,8A8.009,8.009,0,0,1,72,192ZM223.68,458.852a32,32,0,0,1,63.233.458A104.089,104.089,0,0,1,223.68,458.852Zm40.153-86.7c-.039-.472-.087-.968-.146-1.5,3.911-24.714,27.06-28.515,52.008-26.655C303.044,366.528,286.7,383.376,263.833,372.156Zm-16.407,0c-22.9,11.231-39.209-5.624-51.862-28.152,24.969-1.864,48.1,1.953,52.009,26.655C247.513,371.188,247.466,371.685,247.426,372.157Zm54.6,81.084A48.125,48.125,0,0,0,264,416.812v-27.42c11.823,3.776,23.567,2.958,34.214-2.75,22.3-11.955,36.542-44.692,37.138-46.079a8,8,0,0,0-5.912-11.025c-1.487-.272-36.637-6.518-58.931,5.435a41.613,41.613,0,0,0-14.88,13.277,41.618,41.618,0,0,0-14.879-13.277c-22.294-11.954-57.445-5.707-58.931-5.435a8,8,0,0,0-5.911,11.025c.6,1.387,14.842,34.124,37.138,46.079,11.142,5.975,23.205,6.452,34.954,2.5v27.4a48.127,48.127,0,0,0-39.356,36.03c-71.8-36.874-76.213-137.565-7.961-180.608a7.962,7.962,0,0,0,5.928-3.476C274.764,231.562,360,280.624,360,360A104.117,104.117,0,0,1,302.029,453.241ZM384,224a8,8,0,1,1-8,8A8.009,8.009,0,0,1,384,224Z" data-original="#000000" class="active-path" data-old_color="#000000" fill="#0BA4AAB5"/><circle cx="160" cy="56" r="8" data-original="#000000" class="active-path" data-old_color="#000000" fill="#0BA4AAB5"/></g></g> </svg>
